simulation
nRows=45
nColumns=15
endheader
time  TH_x TH_y TH_z SC_y  SC_z  SC_x  AC_y  AC_z  AC_x  GH_y  GH_z  GH_yy  EL_x  PS_y
0.000000  0.000000  0.000000  0.000000  -21.784000  6.303000  1.000000  46.295000  4.899000  -1.180000  0.000000  8.000000  0.000000  5.000000  0.000000
0.000000  0.000000  0.000000  0.000000  -21.784000  6.303000  0.999999  46.295000  4.899000  -1.180000  0.000000  8.000000  -0.000000  5.000000  0.000000
0.000000  0.000000  0.000000  0.000000  -21.784000  6.303000  0.999998  46.295000  4.899001  -1.179999  0.000000  8.000000  -0.000000  5.000000  0.000000
0.000001  0.000000  0.000000  0.000000  -21.784000  6.303000  0.999996  46.295000  4.899003  -1.179997  0.000001  8.000000  -0.000000  5.000000  0.000000
0.000002  0.000000  0.000000  0.000000  -21.784000  6.303000  0.999961  46.294996  4.899028  -1.179973  0.000006  8.000000  -0.000004  5.000000  0.000000
0.000004  0.000000  0.000000  0.000000  -21.784000  6.303000  0.999894  46.294988  4.899077  -1.179927  0.000016  8.000000  -0.000010  5.000000  0.000000
0.000005  0.000000  0.000000  0.000000  -21.784000  6.303000  0.999798  46.294977  4.899147  -1.179861  0.000031  7.999999  -0.000020  4.999999  0.000000
0.000007  0.000000  0.000000  0.000000  -21.784000  6.303000  0.999676  46.294963  4.899235  -1.179778  0.000051  7.999999  -0.000033  4.999999  0.000000
0.000011  0.000000  0.000000  0.000000  -21.784001  6.303000  0.999287  46.294914  4.899519  -1.179511  0.000124  7.999997  -0.000079  4.999997  0.000000
0.000015  0.000000  0.000000  0.000000  -21.784003  6.303000  0.998806  46.294849  4.899870  -1.179180  0.000227  7.999993  -0.000144  4.999995  0.000000
0.000019  0.000000  0.000000  0.000000  -21.784005  6.303001  0.998262  46.294769  4.900268  -1.178807  0.000361  7.999989  -0.000228  4.999992  0.000000
0.000023  0.000000  0.000000  0.000000  -21.784007  6.303001  0.997674  46.294675  4.900699  -1.178405  0.000525  7.999983  -0.000329  4.999988  0.000000
0.000027  0.000000  0.000000  0.000000  -21.784010  6.303001  0.997056  46.294569  4.901153  -1.177983  0.000719  7.999976  -0.000449  4.999983  0.000000
0.000031  0.000000  0.000000  0.000000  -21.784015  6.303002  0.996379  46.294442  4.901652  -1.177521  0.000957  7.999967  -0.000595  4.999977  0.000000
0.000035  0.000000  0.000000  0.000000  -21.784020  6.303002  0.995686  46.294303  4.902165  -1.177048  0.001228  7.999956  -0.000761  4.999970  0.000000
0.000039  0.000000  0.000000  0.000000  -21.784026  6.303003  0.994983  46.294150  4.902686  -1.176569  0.001531  7.999944  -0.000946  4.999962  0.000000
0.000043  0.000000  0.000000  0.000000  -21.784033  6.303003  0.994272  46.293985  4.903215  -1.176086  0.001867  7.999930  -0.001150  4.999953  0.000000
0.000048  0.000000  0.000000  0.000000  -21.784040  6.303004  0.993557  46.293807  4.903748  -1.175600  0.002236  7.999914  -0.001374  4.999943  0.000000
0.000055  0.000000  0.000000  0.000000  -21.784055  6.303005  0.992371  46.293487  4.904637  -1.174796  0.002915  7.999886  -0.001785  4.999924  0.000000
0.000061  0.000000  0.000000  0.000000  -21.784072  6.303006  0.991181  46.293133  4.905532  -1.173991  0.003681  7.999852  -0.002247  4.999903  0.000000
0.000068  0.000000  0.000000  0.000000  -21.784091  6.303008  0.989990  46.292746  4.906433  -1.173187  0.004535  7.999814  -0.002761  4.999880  0.000000
0.000075  0.000000  0.000000  0.000000  -21.784112  6.303009  0.988799  46.292327  4.907340  -1.172385  0.005475  7.999772  -0.003326  4.999854  0.000000
0.000082  0.000000  0.000000  0.000000  -21.784136  6.303011  0.987607  46.291874  4.908250  -1.171585  0.006501  7.999726  -0.003941  4.999826  0.000000
0.000096  0.000000  0.000000  0.000000  -21.784192  6.303015  0.985191  46.290854  4.910112  -1.169966  0.008848  7.999618  -0.005344  4.999761  0.000000
0.000110  0.000000  0.000000  0.000000  -21.784257  6.303020  0.982778  46.289700  4.911991  -1.168357  0.011544  7.999493  -0.006952  4.999686  0.000000
0.000124  0.000000  0.000000  0.000000  -21.784332  6.303025  0.980370  46.288413  4.913885  -1.166757  0.014585  7.999350  -0.008762  4.999601  0.000000
0.000138  0.000000  0.000000  0.000000  -21.784416  6.303031  0.977966  46.286993  4.915795  -1.165167  0.017968  7.999189  -0.010770  4.999508  0.000000
0.000185  0.000000  0.000000  0.000000  -21.784766  6.303053  0.969997  46.281326  4.922264  -1.159938  0.031624  7.998527  -0.018842  4.999130  0.000000
0.000231  0.000000  0.000000  0.000000  -21.785220  6.303080  0.962083  46.274228  4.928900  -1.154802  0.048883  7.997672  -0.028990  4.998658  0.000000
0.000278  0.000000  0.000000  0.000000  -21.785777  6.303112  0.954226  46.265729  4.935699  -1.149754  0.069614  7.996629  -0.041121  4.998098  0.000000
0.000324  0.000000  0.000000  0.000000  -21.786438  6.303147  0.946428  46.255856  4.942655  -1.144785  0.093684  7.995399  -0.055146  4.997457  0.000000
0.000508  0.000000  0.000000  0.000000  -21.790041  6.303313  0.916194  46.203849  4.971638  -1.125771  0.219324  7.988766  -0.127569  4.994251  0.000000
0.000692  0.000000  0.000000  0.000000  -21.795176  6.303492  0.887053  46.132470  5.002728  -1.107481  0.387896  7.979463  -0.223196  4.990267  0.000000
0.000877  0.000000  0.000000  0.000000  -21.801776  6.303650  0.859110  46.043351  5.035652  -1.089546  0.592603  7.967697  -0.337455  4.985862  0.000000
0.001061  0.000000  0.000000  0.000000  -21.809776  6.303756  0.832447  45.938044  5.070154  -1.071644  0.827362  7.953672  -0.466342  4.981350  0.000000
0.001245  0.000000  0.000000  0.000000  -21.819108  6.303783  0.807121  45.818023  5.105991  -1.053496  1.086718  7.937592  -0.606351  4.977008  0.000000
0.001509  0.000000  0.000000  0.000000  -21.834694  6.303634  0.773178  45.622819  5.159318  -1.026540  1.492237  7.911309  -0.820634  4.971556  0.000000
0.001774  0.000000  0.000000  0.000000  -21.852681  6.303205  0.742123  45.404100  5.214312  -0.998010  1.925565  7.881755  -1.043709  4.967570  0.000000
0.002038  0.000000  0.000000  0.000000  -21.872865  6.302444  0.713945  45.165515  5.270412  -0.967472  2.375785  7.849454  -1.269196  4.965549  0.000000
0.002302  0.000000  0.000000  0.000000  -21.895047  6.301307  0.688579  44.910453  5.327113  -0.934615  2.833633  7.814897  -1.491951  4.965892  0.000000
0.002567  0.000000  0.000000  0.000000  -21.919043  6.299761  0.665933  44.641797  5.383992  -0.899262  3.291954  7.778498  -1.708256  4.968889  0.000000
0.002831  0.000000  0.000000  0.000000  -21.944711  6.297783  0.645926  44.361526  5.440751  -0.861365  3.746460  7.740538  -1.916182  4.974708  0.000000
0.003151  0.000000  0.000000  0.000000  -21.977882  6.294796  0.625126  44.008215  5.509079  -0.812183  4.289629  7.692704  -2.156585  4.985610  0.000000
0.003471  0.000000  0.000000  0.000000  -22.013185  6.291148  0.607878  43.640941  5.576822  -0.759622  4.824908  7.643012  -2.386160  5.000768  0.000000
0.003732  0.000000  0.000000  0.000000  -22.043401  6.287685  0.596188  43.331999  5.631595  -0.714585  5.257592  7.601266  -2.568542  5.016260  0.000000
